<svg xmlns="http://www.w3.org/2000/svg" width="1276" height="672" viewBox="0 0 1276 672">
  <rect width="100%" height="100%" fill="#101820" />
  <text x="22" y="26" font-size="18" fill="#9dff57" font-family="monospace" font-weight="700">Signal Storm · Area 47</text>
  <text x="22" y="43" font-size="11" fill="#f5efe0" font-family="monospace">anomaly-01 · 82x54 tiles · mode: waves</text>
  <rect x="22" y="54" width="902" height="594" fill="#18252c" stroke="#20313a" stroke-width="2" />
  <line x1="22" y1="54" x2="22" y2="648" stroke="#20313a" stroke-width="1" opacity="0.45" />
<line x1="66" y1="54" x2="66" y2="648" stroke="#20313a" stroke-width="1" opacity="0.45" />
<line x1="110" y1="54" x2="110" y2="648" stroke="#20313a" stroke-width="1" opacity="0.45" />
<line x1="154" y1="54" x2="154" y2="648" stroke="#20313a" stroke-width="1" opacity="0.45" />
<line x1="198" y1="54" x2="198" y2="648" stroke="#20313a" stroke-width="1" opacity="0.45" />
<line x1="242" y1="54" x2="242" y2="648" stroke="#20313a" stroke-width="1" opacity="0.45" />
<line x1="286" y1="54" x2="286" y2="648" stroke="#20313a" stroke-width="1" opacity="0.45" />
<line x1="330" y1="54" x2="330" y2="648" stroke="#20313a" stroke-width="1" opacity="0.45" />
<line x1="374" y1="54" x2="374" y2="648" stroke="#20313a" stroke-width="1" opacity="0.45" />
<line x1="418" y1="54" x2="418" y2="648" stroke="#20313a" stroke-width="1" opacity="0.45" />
<line x1="462" y1="54" x2="462" y2="648" stroke="#20313a" stroke-width="1" opacity="0.45" />
<line x1="506" y1="54" x2="506" y2="648" stroke="#20313a" stroke-width="1" opacity="0.45" />
<line x1="550" y1="54" x2="550" y2="648" stroke="#20313a" stroke-width="1" opacity="0.45" />
<line x1="594" y1="54" x2="594" y2="648" stroke="#20313a" stroke-width="1" opacity="0.45" />
<line x1="638" y1="54" x2="638" y2="648" stroke="#20313a" stroke-width="1" opacity="0.45" />
<line x1="682" y1="54" x2="682" y2="648" stroke="#20313a" stroke-width="1" opacity="0.45" />
<line x1="726" y1="54" x2="726" y2="648" stroke="#20313a" stroke-width="1" opacity="0.45" />
<line x1="770" y1="54" x2="770" y2="648" stroke="#20313a" stroke-width="1" opacity="0.45" />
<line x1="814" y1="54" x2="814" y2="648" stroke="#20313a" stroke-width="1" opacity="0.45" />
<line x1="858" y1="54" x2="858" y2="648" stroke="#20313a" stroke-width="1" opacity="0.45" />
<line x1="902" y1="54" x2="902" y2="648" stroke="#20313a" stroke-width="1" opacity="0.45" />
<line x1="22" y1="54" x2="924" y2="54" stroke="#20313a" stroke-width="1" opacity="0.45" />
<line x1="22" y1="98" x2="924" y2="98" stroke="#20313a" stroke-width="1" opacity="0.45" />
<line x1="22" y1="142" x2="924" y2="142" stroke="#20313a" stroke-width="1" opacity="0.45" />
<line x1="22" y1="186" x2="924" y2="186" stroke="#20313a" stroke-width="1" opacity="0.45" />
<line x1="22" y1="230" x2="924" y2="230" stroke="#20313a" stroke-width="1" opacity="0.45" />
<line x1="22" y1="274" x2="924" y2="274" stroke="#20313a" stroke-width="1" opacity="0.45" />
<line x1="22" y1="318" x2="924" y2="318" stroke="#20313a" stroke-width="1" opacity="0.45" />
<line x1="22" y1="362" x2="924" y2="362" stroke="#20313a" stroke-width="1" opacity="0.45" />
<line x1="22" y1="406" x2="924" y2="406" stroke="#20313a" stroke-width="1" opacity="0.45" />
<line x1="22" y1="450" x2="924" y2="450" stroke="#20313a" stroke-width="1" opacity="0.45" />
<line x1="22" y1="494" x2="924" y2="494" stroke="#20313a" stroke-width="1" opacity="0.45" />
<line x1="22" y1="538" x2="924" y2="538" stroke="#20313a" stroke-width="1" opacity="0.45" />
<line x1="22" y1="582" x2="924" y2="582" stroke="#20313a" stroke-width="1" opacity="0.45" />
<line x1="22" y1="626" x2="924" y2="626" stroke="#20313a" stroke-width="1" opacity="0.45" />
  <rect x="451" y="428" width="44" height="110" fill="#466f61" opacity="0.88" rx="2" />
<rect x="286" y="373" width="88" height="44" fill="#466f61" opacity="0.88" rx="2" />
<rect x="572" y="373" width="99" height="44" fill="#466f61" opacity="0.88" rx="2" />
<rect x="451" y="230" width="44" height="88" fill="#466f61" opacity="0.88" rx="2" />
<rect x="297" y="505" width="99" height="44" fill="#466f61" opacity="0.88" rx="2" />
<rect x="550" y="505" width="110" height="44" fill="#466f61" opacity="0.88" rx="2" />
<rect x="297" y="197" width="66" height="44" fill="#466f61" opacity="0.88" rx="2" />
<rect x="583" y="197" width="66" height="44" fill="#466f61" opacity="0.88" rx="2" />
<rect x="220" y="252" width="44" height="77" fill="#466f61" opacity="0.88" rx="2" />
<rect x="704" y="252" width="44" height="77" fill="#466f61" opacity="0.88" rx="2" />
<rect x="198" y="505" width="66" height="33" fill="#466f61" opacity="0.88" rx="2" />
<rect x="693" y="505" width="66" height="33" fill="#466f61" opacity="0.88" rx="2" />
<rect x="418" y="274" width="44" height="44" fill="#466f61" opacity="0.88" rx="2" />
<rect x="495" y="274" width="44" height="44" fill="#466f61" opacity="0.88" rx="2" />
<rect x="385" y="527" width="176" height="88" fill="#2f564b" opacity="0.92" rx="2" />
<rect x="363" y="307" width="220" height="132" fill="#2f564b" opacity="0.92" rx="2" />
<rect x="99" y="318" width="198" height="132" fill="#2f564b" opacity="0.92" rx="2" />
<rect x="660" y="318" width="198" height="132" fill="#2f564b" opacity="0.92" rx="2" />
<rect x="352" y="109" width="242" height="132" fill="#2f564b" opacity="0.92" rx="2" />
<rect x="253" y="472" width="165" height="88" fill="#2f564b" opacity="0.92" rx="2" />
<rect x="539" y="472" width="165" height="88" fill="#2f564b" opacity="0.92" rx="2" />
<rect x="154" y="164" width="154" height="88" fill="#2f564b" opacity="0.92" rx="2" />
<rect x="638" y="164" width="154" height="88" fill="#2f564b" opacity="0.92" rx="2" />
<rect x="385" y="252" width="77" height="44" fill="#2f564b" opacity="0.92" rx="2" />
<rect x="495" y="252" width="77" height="44" fill="#2f564b" opacity="0.92" rx="2" />
<rect x="88" y="483" width="110" height="66" fill="#2f564b" opacity="0.92" rx="2" />
<rect x="748" y="483" width="110" height="66" fill="#2f564b" opacity="0.92" rx="2" />
  <circle cx="478.5" cy="576.5" r="5" fill="#ffffff" /><text x="485.5" y="569.5" font-size="10" fill="#e8f5de" font-family="monospace">SPAWN</text>
<rect x="473.5" y="373.5" width="10" height="10" fill="#9dff57" transform="rotate(45 478.5 378.5)" /><text x="485.5" y="371.5" font-size="10" fill="#e8f5de" font-family="monospace">OBJECTIVE</text>

<circle cx="225.5" cy="213.5" r="5" fill="#ffd166" /><text x="232.5" y="206.5" font-size="10" fill="#e8f5de" font-family="monospace">CACHE 1</text>
<circle cx="720.5" cy="213.5" r="5" fill="#ffd166" /><text x="727.5" y="206.5" font-size="10" fill="#e8f5de" font-family="monospace">CACHE 2</text>
<circle cx="291.5" cy="521.5" r="5" fill="#ffd166" /><text x="298.5" y="514.5" font-size="10" fill="#e8f5de" font-family="monospace">CACHE 3</text>
<circle cx="654.5" cy="521.5" r="5" fill="#ffd166" /><text x="661.5" y="514.5" font-size="10" fill="#e8f5de" font-family="monospace">CACHE 4</text>
<rect x="220.5" y="208.5" width="10" height="10" fill="#ffb84d" transform="rotate(45 225.5 213.5)" /><text x="232.5" y="206.5" font-size="10" fill="#e8f5de" font-family="monospace">WEST RELAY CACHE BOON</text>
<rect x="715.5" y="208.5" width="10" height="10" fill="#ffb84d" transform="rotate(45 720.5 213.5)" /><text x="727.5" y="206.5" font-size="10" fill="#e8f5de" font-family="monospace">EAST RELAY CACHE WEAPON</text>
<rect x="286.5" y="516.5" width="10" height="10" fill="#ffb84d" transform="rotate(45 291.5 521.5)" /><text x="298.5" y="514.5" font-size="10" fill="#e8f5de" font-family="monospace">WEST RECOVERY HEALTH</text>
<rect x="649.5" y="516.5" width="10" height="10" fill="#ffb84d" transform="rotate(45 654.5 521.5)" /><text x="661.5" y="514.5" font-size="10" fill="#e8f5de" font-family="monospace">EAST RECOVERY OVERDRIVE</text>
<rect x="473.5" y="175.5" width="10" height="10" fill="#ffb84d" transform="rotate(45 478.5 180.5)" /><text x="485.5" y="173.5" font-size="10" fill="#e8f5de" font-family="monospace">NORTH RIFT SHARDS</text>
  <text x="952" y="26" font-size="14" fill="#9dff57" font-family="monospace" font-weight="700">Schematic Notes</text>
  <text x="952" y="47" font-size="10" fill="#f5efe0" font-family="monospace">Signal Storm is now a staged finale arena with Classifier Core, relay wings, coil pockets, north rift, pressure pockets and real recovery pockets instead of anonymous waves.</text>
  <text x="952" y="75" font-size="11" fill="#f5efe0" font-family="monospace">Legend: white spawn · green objective/sign · cyan exit · yellow cache · red enemy · purple weapon · red line scanner · teal gravity</text>
  <text x="952" y="106" font-size="12" fill="#e8f5de" font-family="monospace" font-weight="700">Storm Entry (41,47)</text>
<text x="952" y="122" font-size="10" fill="#f5efe0" font-family="monospace">Spawn from Orchard in a recovery lane.</text>
<text x="952" y="149" font-size="12" fill="#e8f5de" font-family="monospace" font-weight="700">Classifier Core (41,29)</text>
<text x="952" y="165" font-size="10" fill="#f5efe0" font-family="monospace">Final survival/objective focus.</text>
<text x="952" y="192" font-size="12" fill="#e8f5de" font-family="monospace" font-weight="700">West Pressure Pocket (16,30)</text>
<text x="952" y="208" font-size="10" fill="#f5efe0" font-family="monospace">Wave flank and cover break.</text>
<text x="952" y="235" font-size="12" fill="#e8f5de" font-family="monospace" font-weight="700">East Pressure Pocket (67,30)</text>
<text x="952" y="251" font-size="10" fill="#f5efe0" font-family="monospace">Wave flank and cover break.</text>
<text x="952" y="278" font-size="12" fill="#e8f5de" font-family="monospace" font-weight="700">North Rift (41,11)</text>
<text x="952" y="294" font-size="10" fill="#f5efe0" font-family="monospace">Future boss-stage anchor.</text>
<text x="952" y="321" font-size="12" fill="#e8f5de" font-family="monospace" font-weight="700">West Relay Wing (18,14)</text>
<text x="952" y="337" font-size="10" fill="#f5efe0" font-family="monospace">Phase-two relay target with optional cache pressure.</text>
<text x="952" y="364" font-size="12" fill="#e8f5de" font-family="monospace" font-weight="700">East Relay Wing (63,14)</text>
<text x="952" y="380" font-size="10" fill="#f5efe0" font-family="monospace">Phase-two relay target with optional cache pressure.</text>
<text x="952" y="407" font-size="12" fill="#e8f5de" font-family="monospace" font-weight="700">West Classifier Coil (36,20)</text>
<text x="952" y="423" font-size="10" fill="#f5efe0" font-family="monospace">Phase-one side pocket around the central core.</text>
<text x="952" y="450" font-size="12" fill="#e8f5de" font-family="monospace" font-weight="700">East Classifier Coil (46,20)</text>
<text x="952" y="466" font-size="10" fill="#f5efe0" font-family="monospace">Phase-one side pocket around the central core.</text>
<text x="952" y="493" font-size="12" fill="#e8f5de" font-family="monospace" font-weight="700">Recovery Pockets (29,42)</text>
<text x="952" y="509" font-size="10" fill="#f5efe0" font-family="monospace">Southwest/southeast/far-side breathing areas between phases.</text>
</svg>
