<svg xmlns="http://www.w3.org/2000/svg" width="1320" height="650" viewBox="0 0 1320 650">
  <rect width="100%" height="100%" fill="#101820" />
  <text x="22" y="26" font-size="18" fill="#9dff57" font-family="monospace" font-weight="700">Inside the Circuit · Motel Nowhere</text>
  <text x="22" y="43" font-size="11" fill="#f5efe0" font-family="monospace">circuit-z2 · 86x52 tiles · mode: traverse</text>
  <rect x="22" y="54" width="946" height="572" fill="#18252c" stroke="#20313a" stroke-width="2" />
  <line x1="22" y1="54" x2="22" y2="626" stroke="#20313a" stroke-width="1" opacity="0.45" />
<line x1="66" y1="54" x2="66" y2="626" stroke="#20313a" stroke-width="1" opacity="0.45" />
<line x1="110" y1="54" x2="110" y2="626" stroke="#20313a" stroke-width="1" opacity="0.45" />
<line x1="154" y1="54" x2="154" y2="626" stroke="#20313a" stroke-width="1" opacity="0.45" />
<line x1="198" y1="54" x2="198" y2="626" stroke="#20313a" stroke-width="1" opacity="0.45" />
<line x1="242" y1="54" x2="242" y2="626" stroke="#20313a" stroke-width="1" opacity="0.45" />
<line x1="286" y1="54" x2="286" y2="626" stroke="#20313a" stroke-width="1" opacity="0.45" />
<line x1="330" y1="54" x2="330" y2="626" stroke="#20313a" stroke-width="1" opacity="0.45" />
<line x1="374" y1="54" x2="374" y2="626" stroke="#20313a" stroke-width="1" opacity="0.45" />
<line x1="418" y1="54" x2="418" y2="626" stroke="#20313a" stroke-width="1" opacity="0.45" />
<line x1="462" y1="54" x2="462" y2="626" stroke="#20313a" stroke-width="1" opacity="0.45" />
<line x1="506" y1="54" x2="506" y2="626" stroke="#20313a" stroke-width="1" opacity="0.45" />
<line x1="550" y1="54" x2="550" y2="626" stroke="#20313a" stroke-width="1" opacity="0.45" />
<line x1="594" y1="54" x2="594" y2="626" stroke="#20313a" stroke-width="1" opacity="0.45" />
<line x1="638" y1="54" x2="638" y2="626" stroke="#20313a" stroke-width="1" opacity="0.45" />
<line x1="682" y1="54" x2="682" y2="626" stroke="#20313a" stroke-width="1" opacity="0.45" />
<line x1="726" y1="54" x2="726" y2="626" stroke="#20313a" stroke-width="1" opacity="0.45" />
<line x1="770" y1="54" x2="770" y2="626" stroke="#20313a" stroke-width="1" opacity="0.45" />
<line x1="814" y1="54" x2="814" y2="626" stroke="#20313a" stroke-width="1" opacity="0.45" />
<line x1="858" y1="54" x2="858" y2="626" stroke="#20313a" stroke-width="1" opacity="0.45" />
<line x1="902" y1="54" x2="902" y2="626" stroke="#20313a" stroke-width="1" opacity="0.45" />
<line x1="946" y1="54" x2="946" y2="626" stroke="#20313a" stroke-width="1" opacity="0.45" />
<line x1="22" y1="54" x2="968" y2="54" stroke="#20313a" stroke-width="1" opacity="0.45" />
<line x1="22" y1="98" x2="968" y2="98" stroke="#20313a" stroke-width="1" opacity="0.45" />
<line x1="22" y1="142" x2="968" y2="142" stroke="#20313a" stroke-width="1" opacity="0.45" />
<line x1="22" y1="186" x2="968" y2="186" stroke="#20313a" stroke-width="1" opacity="0.45" />
<line x1="22" y1="230" x2="968" y2="230" stroke="#20313a" stroke-width="1" opacity="0.45" />
<line x1="22" y1="274" x2="968" y2="274" stroke="#20313a" stroke-width="1" opacity="0.45" />
<line x1="22" y1="318" x2="968" y2="318" stroke="#20313a" stroke-width="1" opacity="0.45" />
<line x1="22" y1="362" x2="968" y2="362" stroke="#20313a" stroke-width="1" opacity="0.45" />
<line x1="22" y1="406" x2="968" y2="406" stroke="#20313a" stroke-width="1" opacity="0.45" />
<line x1="22" y1="450" x2="968" y2="450" stroke="#20313a" stroke-width="1" opacity="0.45" />
<line x1="22" y1="494" x2="968" y2="494" stroke="#20313a" stroke-width="1" opacity="0.45" />
<line x1="22" y1="538" x2="968" y2="538" stroke="#20313a" stroke-width="1" opacity="0.45" />
<line x1="22" y1="582" x2="968" y2="582" stroke="#20313a" stroke-width="1" opacity="0.45" />
<line x1="22" y1="626" x2="968" y2="626" stroke="#20313a" stroke-width="1" opacity="0.45" />
  <rect x="165" y="461" width="44" height="44" fill="#466f61" opacity="0.88" rx="2" />
<rect x="319" y="428" width="33" height="44" fill="#466f61" opacity="0.88" rx="2" />
<rect x="253" y="263" width="44" height="143" fill="#466f61" opacity="0.88" rx="2" />
<rect x="407" y="230" width="44" height="44" fill="#466f61" opacity="0.88" rx="2" />
<rect x="550" y="351" width="44" height="44" fill="#466f61" opacity="0.88" rx="2" />
<rect x="484" y="428" width="55" height="44" fill="#466f61" opacity="0.88" rx="2" />
<rect x="660" y="428" width="55" height="44" fill="#466f61" opacity="0.88" rx="2" />
<rect x="814" y="230" width="44" height="187" fill="#466f61" opacity="0.88" rx="2" />
<rect x="605" y="219" width="44" height="44" fill="#466f61" opacity="0.88" rx="2" />
<rect x="726" y="197" width="55" height="33" fill="#466f61" opacity="0.88" rx="2" />
<rect x="154" y="252" width="77" height="33" fill="#466f61" opacity="0.88" rx="2" />
<rect x="121" y="296" width="44" height="209" fill="#466f61" opacity="0.88" rx="2" />
<rect x="407" y="472" width="44" height="66" fill="#466f61" opacity="0.88" rx="2" />
<rect x="484" y="549" width="319" height="33" fill="#466f61" opacity="0.88" rx="2" />
<rect x="825" y="516" width="44" height="44" fill="#466f61" opacity="0.88" rx="2" />
<rect x="66" y="494" width="154" height="88" fill="#2f564b" opacity="0.92" rx="2" />
<rect x="154" y="395" width="176" height="88" fill="#2f564b" opacity="0.92" rx="2" />
<rect x="341" y="395" width="154" height="88" fill="#2f564b" opacity="0.92" rx="2" />
<rect x="220" y="186" width="198" height="88" fill="#2f564b" opacity="0.92" rx="2" />
<rect x="440" y="252" width="176" height="110" fill="#2f564b" opacity="0.92" rx="2" />
<rect x="528" y="384" width="143" height="88" fill="#2f564b" opacity="0.92" rx="2" />
<rect x="704" y="406" width="176" height="110" fill="#2f564b" opacity="0.92" rx="2" />
<rect x="770" y="131" width="154" height="99" fill="#2f564b" opacity="0.92" rx="2" />
<rect x="99" y="219" width="110" height="88" fill="#2f564b" opacity="0.92" rx="2" />
<rect x="627" y="186" width="110" height="77" fill="#2f564b" opacity="0.92" rx="2" />
<rect x="385" y="527" width="110" height="55" fill="#2f564b" opacity="0.92" rx="2" />
<rect x="792" y="549" width="99" height="44" fill="#2f564b" opacity="0.92" rx="2" />
  <line x1="401.5" y1="543.5" x2="467.5" y2="543.5" stroke="#ff4d5e" stroke-width="4" opacity="0.84" />
<circle cx="401.5" cy="543.5" r="5" fill="#ff4d5e" />
<text x="441.5" y="536.5" font-size="10" fill="#ff9aa5" font-family="monospace">DUMPSTER SCANNER</text>
<line x1="170.5" y1="499.5" x2="203.5" y2="499.5" stroke="#ff4d5e" stroke-width="4" opacity="0.84" />
<circle cx="170.5" cy="499.5" r="5" fill="#ff4d5e" />
<text x="194" y="492.5" font-size="10" fill="#ff9aa5" font-family="monospace">ENTRY SCANNER</text>
<line x1="269.5" y1="312.5" x2="269.5" y2="389.5" stroke="#ff4d5e" stroke-width="4" opacity="0.84" />
<circle cx="269.5" cy="312.5" r="5" fill="#ff4d5e" />
<text x="276.5" y="344" font-size="10" fill="#ff9aa5" font-family="monospace">ROOM ROW SCANNER</text>
<line x1="478.5" y1="290.5" x2="588.5" y2="290.5" stroke="#ff4d5e" stroke-width="4" opacity="0.84" />
<circle cx="478.5" cy="290.5" r="5" fill="#ff4d5e" />
<text x="540.5" y="283.5" font-size="10" fill="#ff9aa5" font-family="monospace">POOL SCANNER</text>
<line x1="566.5" y1="411.5" x2="654.5" y2="411.5" stroke="#ff4d5e" stroke-width="4" opacity="0.84" />
<circle cx="566.5" cy="411.5" r="5" fill="#ff4d5e" />
<text x="617.5" y="404.5" font-size="10" fill="#ff9aa5" font-family="monospace">SERVICE SCANNER</text>
<line x1="819.5" y1="279.5" x2="852.5" y2="279.5" stroke="#ff4d5e" stroke-width="4" opacity="0.84" />
<circle cx="819.5" cy="279.5" r="5" fill="#ff4d5e" />
<text x="843" y="272.5" font-size="10" fill="#ff9aa5" font-family="monospace">RIVER ROAD SCANNER</text>
<circle cx="423.5" cy="554.5" r="5" fill="#ffffff" /><text x="430.5" y="547.5" font-size="10" fill="#e8f5de" font-family="monospace">SPAWN</text>
<rect x="583.5" y="428.5" width="10" height="10" fill="#9dff57" transform="rotate(45 588.5 433.5)" /><text x="595.5" y="426.5" font-size="10" fill="#e8f5de" font-family="monospace">OBJECTIVE</text>
<rect x="847.5" y="175.5" width="10" height="10" fill="#67d8ff" transform="rotate(45 852.5 180.5)" /><text x="859.5" y="173.5" font-size="10" fill="#e8f5de" font-family="monospace">EXIT</text>
<rect x="594.5" y="417.5" width="10" height="10" fill="#ff9f1c" transform="rotate(45 599.5 422.5)" /><text x="606.5" y="415.5" font-size="10" fill="#e8f5de" font-family="monospace">ELITE</text>
<circle cx="115.5" cy="543.5" r="5" fill="#ffd166" /><text x="122.5" y="536.5" font-size="10" fill="#e8f5de" font-family="monospace">CACHE 1</text>
<circle cx="137.5" cy="257.5" r="5" fill="#ffd166" /><text x="144.5" y="250.5" font-size="10" fill="#e8f5de" font-family="monospace">CACHE 2</text>
<circle cx="302.5" cy="213.5" r="5" fill="#ffd166" /><text x="309.5" y="206.5" font-size="10" fill="#e8f5de" font-family="monospace">CACHE 3</text>
<circle cx="676.5" cy="224.5" r="5" fill="#ffd166" /><text x="683.5" y="217.5" font-size="10" fill="#e8f5de" font-family="monospace">CACHE 4</text>
<circle cx="841.5" cy="477.5" r="5" fill="#ffd166" /><text x="848.5" y="470.5" font-size="10" fill="#e8f5de" font-family="monospace">CACHE 5</text>
<circle cx="841.5" cy="565.5" r="5" fill="#ffd166" /><text x="848.5" y="558.5" font-size="10" fill="#e8f5de" font-family="monospace">CACHE 6</text>
<circle cx="896.5" cy="158.5" r="5" fill="#ffd166" /><text x="903.5" y="151.5" font-size="10" fill="#e8f5de" font-family="monospace">CACHE 7</text>
<rect x="198.5" y="439.5" width="10" height="10" fill="#ffb84d" transform="rotate(45 203.5 444.5)" /><text x="210.5" y="437.5" font-size="10" fill="#e8f5de" font-family="monospace">SAFE BATTERY HEALTH</text>
<rect x="132.5" y="252.5" width="10" height="10" fill="#ffb84d" transform="rotate(45 137.5 257.5)" /><text x="144.5" y="250.5" font-size="10" fill="#e8f5de" font-family="monospace">MAINTENANCE CACHE BOON</text>
<rect x="297.5" y="208.5" width="10" height="10" fill="#ffb84d" transform="rotate(45 302.5 213.5)" /><text x="309.5" y="206.5" font-size="10" fill="#e8f5de" font-family="monospace">ROOM ROW STASH SHARDS</text>
<rect x="517.5" y="307.5" width="10" height="10" fill="#ffb84d" transform="rotate(45 522.5 312.5)" /><text x="529.5" y="305.5" font-size="10" fill="#e8f5de" font-family="monospace">POOL CROSSING OVERDRIVE</text>
<rect x="836.5" y="472.5" width="10" height="10" fill="#ffb84d" transform="rotate(45 841.5 477.5)" /><text x="848.5" y="470.5" font-size="10" fill="#e8f5de" font-family="monospace">SERVICE LOCKER WEAPON</text>
<rect x="671.5" y="219.5" width="10" height="10" fill="#ffb84d" transform="rotate(45 676.5 224.5)" /><text x="683.5" y="217.5" font-size="10" fill="#e8f5de" font-family="monospace">SIGN LEDGE HEALTH</text>
<circle cx="368.5" cy="444.5" r="5" fill="#b86dff" /><text x="375.5" y="437.5" font-size="10" fill="#e8f5de" font-family="monospace">WPN ARC</text>
<circle cx="676.5" cy="224.5" r="5" fill="#b86dff" /><text x="683.5" y="217.5" font-size="10" fill="#e8f5de" font-family="monospace">WPN DISC</text>
<circle cx="423.5" cy="554.5" r="5" fill="#bcff72" /><text x="430.5" y="547.5" font-size="10" fill="#e8f5de" font-family="monospace">DUMPSTER CUT</text>
<circle cx="368.5" cy="444.5" r="5" fill="#bcff72" /><text x="375.5" y="437.5" font-size="10" fill="#e8f5de" font-family="monospace">CHECK-IN OFFICE</text>
<circle cx="522.5" cy="312.5" r="5" fill="#bcff72" /><text x="529.5" y="305.5" font-size="10" fill="#e8f5de" font-family="monospace">POOL COURTYARD</text>
<circle cx="588.5" cy="433.5" r="5" fill="#bcff72" /><text x="595.5" y="426.5" font-size="10" fill="#e8f5de" font-family="monospace">SCANNER CORE</text>
<circle cx="753.5" cy="455.5" r="5" fill="#67d8ff" /><text x="760.5" y="448.5" font-size="10" fill="#e8f5de" font-family="monospace">SERVICE LOT</text>
<circle cx="830.5" cy="323.5" r="5" fill="#67d8ff" /><text x="837.5" y="316.5" font-size="10" fill="#e8f5de" font-family="monospace">RIVER RAMP</text>
<circle cx="830.5" cy="202.5" r="5" fill="#67d8ff" /><text x="837.5" y="195.5" font-size="10" fill="#e8f5de" font-family="monospace">RIVER ROAD</text>
<circle cx="852.5" cy="180.5" r="5" fill="#67d8ff" /><text x="859.5" y="173.5" font-size="10" fill="#e8f5de" font-family="monospace">TOWN BREACH</text>
<circle cx="225.5" cy="444.5" r="5" fill="#ff5d73" /><text x="232.5" y="437.5" font-size="10" fill="#e8f5de" font-family="monospace">DECOY</text>
<circle cx="379.5" cy="444.5" r="5" fill="#ff5d73" /><text x="386.5" y="437.5" font-size="10" fill="#e8f5de" font-family="monospace">SNIPER</text>
<circle cx="291.5" cy="224.5" r="5" fill="#ff5d73" /><text x="298.5" y="217.5" font-size="10" fill="#e8f5de" font-family="monospace">WARDEN</text>
<circle cx="401.5" cy="246.5" r="5" fill="#ff5d73" /><text x="408.5" y="239.5" font-size="10" fill="#e8f5de" font-family="monospace">WARDEN</text>
<circle cx="588.5" cy="444.5" r="5" fill="#ff5d73" /><text x="595.5" y="437.5" font-size="10" fill="#e8f5de" font-family="monospace">TURRET</text>
<circle cx="522.5" cy="312.5" r="5" fill="#ff5d73" /><text x="529.5" y="305.5" font-size="10" fill="#e8f5de" font-family="monospace">GRAVITON</text>
<circle cx="720.5" cy="224.5" r="5" fill="#ff5d73" /><text x="727.5" y="217.5" font-size="10" fill="#e8f5de" font-family="monospace">SNIPER</text>
<circle cx="643.5" cy="433.5" r="5" fill="#ff5d73" /><text x="650.5" y="426.5" font-size="10" fill="#e8f5de" font-family="monospace">TURRET</text>
<circle cx="170.5" cy="268.5" r="5" fill="#ff5d73" /><text x="177.5" y="261.5" font-size="10" fill="#e8f5de" font-family="monospace">DECOY</text>
<circle cx="797.5" cy="455.5" r="5" fill="#ff5d73" /><text x="804.5" y="448.5" font-size="10" fill="#e8f5de" font-family="monospace">WARDEN</text>
<circle cx="819.5" cy="180.5" r="5" fill="#ff5d73" /><text x="826.5" y="173.5" font-size="10" fill="#e8f5de" font-family="monospace">SNIPER</text>
<circle cx="742.5" cy="433.5" r="5" fill="#ff5d73" /><text x="749.5" y="426.5" font-size="10" fill="#e8f5de" font-family="monospace">TURRET</text>
<circle cx="511.5" cy="554.5" r="5" fill="#ff5d73" /><text x="518.5" y="547.5" font-size="10" fill="#e8f5de" font-family="monospace">SNIPER</text>
  <text x="996" y="26" font-size="14" fill="#9dff57" font-family="monospace" font-weight="700">Schematic Notes</text>
  <text x="996" y="47" font-size="10" fill="#f5efe0" font-family="monospace">Motel is now a stealth/infiltration graph with scanner route, upper room-row branch, hidden maintenance path, service-lot fallback, drainage loop and River Road exit.</text>
  <text x="996" y="75" font-size="11" fill="#f5efe0" font-family="monospace">Legend: white spawn · green objective/sign · cyan exit · yellow cache · red enemy/scanner · purple weapon · red dashed boost gap · teal gravity</text>
  <text x="996" y="106" font-size="12" fill="#e8f5de" font-family="monospace" font-weight="700">Motel Entry (10,44)</text>
<text x="996" y="122" font-size="10" fill="#f5efe0" font-family="monospace">Spawn from Miller on the roadside shoulder.</text>
<text x="996" y="149" font-size="12" fill="#e8f5de" font-family="monospace" font-weight="700">Safe Shadow (18,35)</text>
<text x="996" y="165" font-size="10" fill="#f5efe0" font-family="monospace">Main stealth read in the parking lot.</text>
<text x="996" y="192" font-size="12" fill="#e8f5de" font-family="monospace" font-weight="700">Check-In Office (31,35)</text>
<text x="996" y="208" font-size="10" fill="#f5efe0" font-family="monospace">Fallback combat route if stealth breaks.</text>
<text x="996" y="235" font-size="12" fill="#e8f5de" font-family="monospace" font-weight="700">Room Row (24,15)</text>
<text x="996" y="251" font-size="10" fill="#f5efe0" font-family="monospace">Optional upper stealth branch with cache pressure.</text>
<text x="996" y="278" font-size="12" fill="#e8f5de" font-family="monospace" font-weight="700">Pool Courtyard (45,23)</text>
<text x="996" y="294" font-size="10" fill="#f5efe0" font-family="monospace">Boost scanner crossing and breathing space.</text>
<text x="996" y="321" font-size="12" fill="#e8f5de" font-family="monospace" font-weight="700">Scanner Core (51,34)</text>
<text x="996" y="337" font-size="10" fill="#f5efe0" font-family="monospace">Main infiltration objective: disable the scanner grid.</text>
<text x="996" y="364" font-size="12" fill="#e8f5de" font-family="monospace" font-weight="700">Service Lot (66,36)</text>
<text x="996" y="380" font-size="10" fill="#f5efe0" font-family="monospace">Combat fallback and return loop.</text>
<text x="996" y="407" font-size="12" fill="#e8f5de" font-family="monospace" font-weight="700">Motel Sign Ledge (60,15)</text>
<text x="996" y="423" font-size="10" fill="#f5efe0" font-family="monospace">Hidden overlook and reward pocket above the motel route.</text>
<text x="996" y="450" font-size="12" fill="#e8f5de" font-family="monospace" font-weight="700">Dumpster Alcove (36,45)</text>
<text x="996" y="466" font-size="10" fill="#f5efe0" font-family="monospace">Small recovery pocket off the fallback route.</text>
<text x="996" y="493" font-size="12" fill="#e8f5de" font-family="monospace" font-weight="700">Drainage Shortcut (74,46)</text>
<text x="996" y="509" font-size="10" fill="#f5efe0" font-family="monospace">Behind-the-lot loop back into the Service Lot.</text>
<text x="996" y="536" font-size="12" fill="#e8f5de" font-family="monospace" font-weight="700">River Road (73,13)</text>
<text x="996" y="552" font-size="10" fill="#f5efe0" font-family="monospace">Exit approach toward Chagrin Falls.</text>
<text x="996" y="579" font-size="12" fill="#e8f5de" font-family="monospace" font-weight="700">Town Breach (75,11)</text>
<text x="996" y="595" font-size="10" fill="#f5efe0" font-family="monospace">Transition into Chagrin Falls Town.</text>
</svg>
