<svg xmlns="http://www.w3.org/2000/svg" width="1320" height="650" viewBox="0 0 1320 650">
  <rect width="100%" height="100%" fill="#101820" />
  <text x="22" y="26" font-size="18" fill="#9dff57" font-family="monospace" font-weight="700">The Surface · Area 47</text>
  <text x="22" y="43" font-size="11" fill="#f5efe0" font-family="monospace">surface-z1 · 86x52 tiles · mode: traverse</text>
  <rect x="22" y="54" width="946" height="572" fill="#18252c" stroke="#20313a" stroke-width="2" />
  <line x1="22" y1="54" x2="22" y2="626" stroke="#20313a" stroke-width="1" opacity="0.45" />
<line x1="66" y1="54" x2="66" y2="626" stroke="#20313a" stroke-width="1" opacity="0.45" />
<line x1="110" y1="54" x2="110" y2="626" stroke="#20313a" stroke-width="1" opacity="0.45" />
<line x1="154" y1="54" x2="154" y2="626" stroke="#20313a" stroke-width="1" opacity="0.45" />
<line x1="198" y1="54" x2="198" y2="626" stroke="#20313a" stroke-width="1" opacity="0.45" />
<line x1="242" y1="54" x2="242" y2="626" stroke="#20313a" stroke-width="1" opacity="0.45" />
<line x1="286" y1="54" x2="286" y2="626" stroke="#20313a" stroke-width="1" opacity="0.45" />
<line x1="330" y1="54" x2="330" y2="626" stroke="#20313a" stroke-width="1" opacity="0.45" />
<line x1="374" y1="54" x2="374" y2="626" stroke="#20313a" stroke-width="1" opacity="0.45" />
<line x1="418" y1="54" x2="418" y2="626" stroke="#20313a" stroke-width="1" opacity="0.45" />
<line x1="462" y1="54" x2="462" y2="626" stroke="#20313a" stroke-width="1" opacity="0.45" />
<line x1="506" y1="54" x2="506" y2="626" stroke="#20313a" stroke-width="1" opacity="0.45" />
<line x1="550" y1="54" x2="550" y2="626" stroke="#20313a" stroke-width="1" opacity="0.45" />
<line x1="594" y1="54" x2="594" y2="626" stroke="#20313a" stroke-width="1" opacity="0.45" />
<line x1="638" y1="54" x2="638" y2="626" stroke="#20313a" stroke-width="1" opacity="0.45" />
<line x1="682" y1="54" x2="682" y2="626" stroke="#20313a" stroke-width="1" opacity="0.45" />
<line x1="726" y1="54" x2="726" y2="626" stroke="#20313a" stroke-width="1" opacity="0.45" />
<line x1="770" y1="54" x2="770" y2="626" stroke="#20313a" stroke-width="1" opacity="0.45" />
<line x1="814" y1="54" x2="814" y2="626" stroke="#20313a" stroke-width="1" opacity="0.45" />
<line x1="858" y1="54" x2="858" y2="626" stroke="#20313a" stroke-width="1" opacity="0.45" />
<line x1="902" y1="54" x2="902" y2="626" stroke="#20313a" stroke-width="1" opacity="0.45" />
<line x1="946" y1="54" x2="946" y2="626" stroke="#20313a" stroke-width="1" opacity="0.45" />
<line x1="22" y1="54" x2="968" y2="54" stroke="#20313a" stroke-width="1" opacity="0.45" />
<line x1="22" y1="98" x2="968" y2="98" stroke="#20313a" stroke-width="1" opacity="0.45" />
<line x1="22" y1="142" x2="968" y2="142" stroke="#20313a" stroke-width="1" opacity="0.45" />
<line x1="22" y1="186" x2="968" y2="186" stroke="#20313a" stroke-width="1" opacity="0.45" />
<line x1="22" y1="230" x2="968" y2="230" stroke="#20313a" stroke-width="1" opacity="0.45" />
<line x1="22" y1="274" x2="968" y2="274" stroke="#20313a" stroke-width="1" opacity="0.45" />
<line x1="22" y1="318" x2="968" y2="318" stroke="#20313a" stroke-width="1" opacity="0.45" />
<line x1="22" y1="362" x2="968" y2="362" stroke="#20313a" stroke-width="1" opacity="0.45" />
<line x1="22" y1="406" x2="968" y2="406" stroke="#20313a" stroke-width="1" opacity="0.45" />
<line x1="22" y1="450" x2="968" y2="450" stroke="#20313a" stroke-width="1" opacity="0.45" />
<line x1="22" y1="494" x2="968" y2="494" stroke="#20313a" stroke-width="1" opacity="0.45" />
<line x1="22" y1="538" x2="968" y2="538" stroke="#20313a" stroke-width="1" opacity="0.45" />
<line x1="22" y1="582" x2="968" y2="582" stroke="#20313a" stroke-width="1" opacity="0.45" />
<line x1="22" y1="626" x2="968" y2="626" stroke="#20313a" stroke-width="1" opacity="0.45" />
  <rect x="209" y="494" width="132" height="44" fill="#466f61" opacity="0.88" rx="2" />
<rect x="440" y="373" width="55" height="77" fill="#466f61" opacity="0.88" rx="2" />
<rect x="132" y="230" width="55" height="231" fill="#466f61" opacity="0.88" rx="2" />
<rect x="220" y="351" width="154" height="44" fill="#466f61" opacity="0.88" rx="2" />
<rect x="528" y="318" width="220" height="44" fill="#466f61" opacity="0.88" rx="2" />
<rect x="484" y="186" width="55" height="121" fill="#466f61" opacity="0.88" rx="2" />
<rect x="528" y="164" width="99" height="44" fill="#466f61" opacity="0.88" rx="2" />
<rect x="517" y="472" width="154" height="44" fill="#466f61" opacity="0.88" rx="2" />
<rect x="792" y="340" width="55" height="99" fill="#466f61" opacity="0.88" rx="2" />
<rect x="517" y="527" width="165" height="44" fill="#466f61" opacity="0.88" rx="2" />
<rect x="715" y="406" width="44" height="33" fill="#466f61" opacity="0.88" rx="2" />
<rect x="748" y="351" width="33" height="55" fill="#466f61" opacity="0.88" rx="2" />
<rect x="671" y="197" width="44" height="165" fill="#466f61" opacity="0.88" rx="2" />
<rect x="66" y="450" width="154" height="110" fill="#2f564b" opacity="0.92" rx="2" />
<rect x="330" y="439" width="198" height="99" fill="#2f564b" opacity="0.92" rx="2" />
<rect x="363" y="296" width="176" height="88" fill="#2f564b" opacity="0.92" rx="2" />
<rect x="77" y="142" width="176" height="99" fill="#2f564b" opacity="0.92" rx="2" />
<rect x="154" y="307" width="143" height="88" fill="#2f564b" opacity="0.92" rx="2" />
<rect x="737" y="241" width="187" height="110" fill="#2f564b" opacity="0.92" rx="2" />
<rect x="660" y="428" width="198" height="99" fill="#2f564b" opacity="0.92" rx="2" />
<rect x="616" y="120" width="176" height="88" fill="#2f564b" opacity="0.92" rx="2" />
<rect x="429" y="527" width="176" height="66" fill="#2f564b" opacity="0.92" rx="2" />
<rect x="803" y="472" width="110" height="88" fill="#2f564b" opacity="0.92" rx="2" />
<rect x="704" y="362" width="88" height="55" fill="#2f564b" opacity="0.92" rx="2" />
  <rect x="572" y="527" width="55" height="44" fill="#ff4d5e" opacity="0.16" stroke="#ff4d5e" stroke-width="2" stroke-dasharray="5 4" />
<path d="M 597.5 527 L 604.5 536.68 L 595.5 548.12 L 603.5 558.68 L 596.5 571" fill="none" stroke="#ff4d5e" stroke-width="3" opacity="0.9" />
<path d="M 599.5 549 L 580.8 541.08 M 599.5 549 L 616 557.8" fill="none" stroke="#ffb15a" stroke-width="2" opacity="0.82" />
<text x="607.5" y="541" font-size="10" fill="#ff4d5e" font-family="monospace">BOOST WASHOUT</text>
<rect x="132" y="252" width="55" height="33" fill="#ff4d5e" opacity="0.16" stroke="#ff4d5e" stroke-width="2" stroke-dasharray="5 4" />
<path d="M 132 266.5 L 144.1 272.5 L 158.4 263.5 L 171.6 271.5 L 187 266.5" fill="none" stroke="#ff4d5e" stroke-width="3" opacity="0.9" />
<path d="M 159.5 268.5 L 149.6 257.28 M 159.5 268.5 L 170.5 278.4" fill="none" stroke="#ffb15a" stroke-width="2" opacity="0.82" />
<text x="167.5" y="260.5" font-size="10" fill="#ff4d5e" font-family="monospace">OLD MILL CRACK</text>
<circle cx="148.5" cy="356.5" r="5" fill="#ffffff" /><text x="155.5" y="349.5" font-size="10" fill="#e8f5de" font-family="monospace">SPAWN</text>
<rect x="451.5" y="340.5" width="10" height="10" fill="#9dff57" transform="rotate(45 456.5 345.5)" /><text x="463.5" y="338.5" font-size="10" fill="#e8f5de" font-family="monospace">OBJECTIVE</text>
<rect x="858.5" y="285.5" width="10" height="10" fill="#67d8ff" transform="rotate(45 863.5 290.5)" /><text x="870.5" y="283.5" font-size="10" fill="#e8f5de" font-family="monospace">EXIT</text>
<circle cx="115.5" cy="180.5" r="5" fill="#ffd166" /><text x="122.5" y="173.5" font-size="10" fill="#e8f5de" font-family="monospace">CACHE 1</text>
<circle cx="412.5" cy="334.5" r="5" fill="#ffd166" /><text x="419.5" y="327.5" font-size="10" fill="#e8f5de" font-family="monospace">CACHE 2</text>
<circle cx="731.5" cy="158.5" r="5" fill="#ffd166" /><text x="738.5" y="151.5" font-size="10" fill="#e8f5de" font-family="monospace">CACHE 3</text>
<circle cx="566.5" cy="554.5" r="5" fill="#ffd166" /><text x="573.5" y="547.5" font-size="10" fill="#e8f5de" font-family="monospace">CACHE 4</text>
<circle cx="863.5" cy="521.5" r="5" fill="#ffd166" /><text x="870.5" y="514.5" font-size="10" fill="#e8f5de" font-family="monospace">CACHE 5</text>
<rect x="154.5" y="186.5" width="10" height="10" fill="#ffb84d" transform="rotate(45 159.5 191.5)" /><text x="166.5" y="184.5" font-size="10" fill="#e8f5de" font-family="monospace">OLD MILL LOG SHARDS</text>
<rect x="726.5" y="164.5" width="10" height="10" fill="#ffb84d" transform="rotate(45 731.5 169.5)" /><text x="738.5" y="162.5" font-size="10" fill="#e8f5de" font-family="monospace">POWER SWITCH BOON</text>
<rect x="858.5" y="516.5" width="10" height="10" fill="#ffb84d" transform="rotate(45 863.5 521.5)" /><text x="870.5" y="514.5" font-size="10" fill="#e8f5de" font-family="monospace">SCOUT SHELTER WEAPON</text>
<rect x="759.5" y="461.5" width="10" height="10" fill="#ffb84d" transform="rotate(45 764.5 466.5)" /><text x="771.5" y="459.5" font-size="10" fill="#e8f5de" font-family="monospace">BEND SIGNAL HEALTH</text>
<circle cx="401.5" cy="477.5" r="5" fill="#b86dff" /><text x="408.5" y="470.5" font-size="10" fill="#e8f5de" font-family="monospace">WPN DISC</text>
<circle cx="731.5" cy="389.5" r="5" fill="#b86dff" /><text x="738.5" y="382.5" font-size="10" fill="#e8f5de" font-family="monospace">WPN ARC</text>
<circle cx="170.5" cy="356.5" r="5" fill="#bcff72" /><text x="177.5" y="349.5" font-size="10" fill="#e8f5de" font-family="monospace">OLD FENCE TRAIL</text>
<circle cx="302.5" cy="356.5" r="5" fill="#bcff72" /><text x="309.5" y="349.5" font-size="10" fill="#e8f5de" font-family="monospace">WILLOW TRAIL</text>
<circle cx="456.5" cy="345.5" r="5" fill="#bcff72" /><text x="463.5" y="338.5" font-size="10" fill="#e8f5de" font-family="monospace">CACHE GROVE</text>
<circle cx="500.5" cy="367.5" r="5" fill="#67d8ff" /><text x="507.5" y="360.5" font-size="10" fill="#e8f5de" font-family="monospace">EAST ROAD</text>
<circle cx="599.5" cy="334.5" r="5" fill="#67d8ff" /><text x="606.5" y="327.5" font-size="10" fill="#e8f5de" font-family="monospace">ROAD BEND</text>
<circle cx="797.5" cy="334.5" r="5" fill="#67d8ff" /><text x="804.5" y="327.5" font-size="10" fill="#e8f5de" font-family="monospace">BREACH ROAD</text>
<circle cx="863.5" cy="290.5" r="5" fill="#67d8ff" /><text x="870.5" y="283.5" font-size="10" fill="#e8f5de" font-family="monospace">MOTEL BREACH</text>
<circle cx="247.5" cy="510.5" r="5" fill="#ff5d73" /><text x="254.5" y="503.5" font-size="10" fill="#e8f5de" font-family="monospace">DRIFTER</text>
<circle cx="412.5" cy="477.5" r="5" fill="#ff5d73" /><text x="419.5" y="470.5" font-size="10" fill="#e8f5de" font-family="monospace">TAGGER</text>
<circle cx="236.5" cy="356.5" r="5" fill="#ff5d73" /><text x="243.5" y="349.5" font-size="10" fill="#e8f5de" font-family="monospace">DRIFTER</text>
<circle cx="456.5" cy="334.5" r="5" fill="#ff5d73" /><text x="463.5" y="327.5" font-size="10" fill="#e8f5de" font-family="monospace">TAGGER</text>
<circle cx="643.5" cy="334.5" r="5" fill="#ff5d73" /><text x="650.5" y="327.5" font-size="10" fill="#e8f5de" font-family="monospace">DIVER</text>
<circle cx="775.5" cy="279.5" r="5" fill="#ff5d73" /><text x="782.5" y="272.5" font-size="10" fill="#e8f5de" font-family="monospace">TAGGER</text>
<circle cx="830.5" cy="323.5" r="5" fill="#ff5d73" /><text x="837.5" y="316.5" font-size="10" fill="#e8f5de" font-family="monospace">DIVER</text>
<circle cx="665.5" cy="169.5" r="5" fill="#ff5d73" /><text x="672.5" y="162.5" font-size="10" fill="#e8f5de" font-family="monospace">DRIFTER</text>
<circle cx="159.5" cy="191.5" r="5" fill="#ff5d73" /><text x="166.5" y="184.5" font-size="10" fill="#e8f5de" font-family="monospace">TAGGER</text>
<circle cx="753.5" cy="389.5" r="5" fill="#ff5d73" /><text x="760.5" y="382.5" font-size="10" fill="#e8f5de" font-family="monospace">DECOY</text>
  <text x="996" y="26" font-size="14" fill="#9dff57" font-family="monospace" font-weight="700">Schematic Notes</text>
  <text x="996" y="47" font-size="10" fill="#f5efe0" font-family="monospace">Miller is the schematic template: readable main road, objective grove, optional old-mill/substation/shelter branches, power-gate shortcut, and one far-east Motel breach.</text>
  <text x="996" y="75" font-size="11" fill="#f5efe0" font-family="monospace">Legend: white spawn · green objective/sign · cyan exit · yellow cache · red enemy/scanner · purple weapon · red dashed boost gap · teal gravity</text>
  <text x="996" y="106" font-size="12" fill="#e8f5de" font-family="monospace" font-weight="700">Spawn Clearing (10,41)</text>
<text x="996" y="122" font-size="10" fill="#f5efe0" font-family="monospace">Start point, low-pressure read of the field.</text>
<text x="996" y="149" font-size="12" fill="#e8f5de" font-family="monospace" font-weight="700">Field Track (21,41)</text>
<text x="996" y="165" font-size="10" fill="#f5efe0" font-family="monospace">Main readable road east from spawn.</text>
<text x="996" y="192" font-size="12" fill="#e8f5de" font-family="monospace" font-weight="700">Willow Trail (35,38)</text>
<text x="996" y="208" font-size="10" fill="#f5efe0" font-family="monospace">Turn north toward the cache objective hub.</text>
<text x="996" y="235" font-size="12" fill="#e8f5de" font-family="monospace" font-weight="700">Willow Cache Grove (39,26)</text>
<text x="996" y="251" font-size="10" fill="#f5efe0" font-family="monospace">Main objective / first Scout-cache beat.</text>
<text x="996" y="278" font-size="12" fill="#e8f5de" font-family="monospace" font-weight="700">Old Mill Spur (12,12)</text>
<text x="996" y="294" font-size="10" fill="#f5efe0" font-family="monospace">Hidden Scout log plus a worthwhile cache off the low-pressure main route.</text>
<text x="996" y="321" font-size="12" fill="#e8f5de" font-family="monospace" font-weight="700">Substation Overlook (62,10)</text>
<text x="996" y="337" font-size="10" fill="#f5efe0" font-family="monospace">Simple power puzzle beat that feeds the East Road shortcut.</text>
<text x="996" y="364" font-size="12" fill="#e8f5de" font-family="monospace" font-weight="700">Power Gate Shortcut (66,30)</text>
<text x="996" y="380" font-size="10" fill="#f5efe0" font-family="monospace">Simple substation-power shortcut back toward East Road.</text>
<text x="996" y="407" font-size="12" fill="#e8f5de" font-family="monospace" font-weight="700">East Road (52,25)</text>
<text x="996" y="423" font-size="10" fill="#f5efe0" font-family="monospace">Main route after the objective opens.</text>
<text x="996" y="450" font-size="12" fill="#e8f5de" font-family="monospace" font-weight="700">Motel Bend (67,37)</text>
<text x="996" y="466" font-size="10" fill="#f5efe0" font-family="monospace">Lower route / recovery lane toward Motel.</text>
<text x="996" y="493" font-size="12" fill="#e8f5de" font-family="monospace" font-weight="700">Lower-Lane Washout (52,45)</text>
<text x="996" y="509" font-size="10" fill="#f5efe0" font-family="monospace">First Boost-only cracked crossing on the lower shortcut lane.</text>
<text x="996" y="536" font-size="12" fill="#e8f5de" font-family="monospace" font-weight="700">Scout Shelter Pocket (76,42)</text>
<text x="996" y="552" font-size="10" fill="#f5efe0" font-family="monospace">Best optional cache/reward pocket in Miller.</text>
<text x="996" y="579" font-size="12" fill="#e8f5de" font-family="monospace" font-weight="700">Old Mill Crack (12,19)</text>
<text x="996" y="595" font-size="10" fill="#f5efe0" font-family="monospace">Optional Boost crossing on the hidden old-mill spur.</text>
<text x="996" y="622" font-size="12" fill="#e8f5de" font-family="monospace" font-weight="700">Motel Breach (76,21)</text>
<text x="996" y="638" font-size="10" fill="#f5efe0" font-family="monospace">Only actual transition into Motel Circuit.</text>
</svg>
