<svg xmlns="http://www.w3.org/2000/svg" width="1386" height="694" viewBox="0 0 1386 694">
  <rect width="100%" height="100%" fill="#101820" />
  <text x="22" y="26" font-size="18" fill="#9dff57" font-family="monospace" font-weight="700">River Road · Chagrin Falls</text>
  <text x="22" y="43" font-size="11" fill="#f5efe0" font-family="monospace">town-z3 · 92x56 tiles · mode: traverse</text>
  <rect x="22" y="54" width="1012" height="616" fill="#18252c" stroke="#20313a" stroke-width="2" />
  <line x1="22" y1="54" x2="22" y2="670" stroke="#20313a" stroke-width="1" opacity="0.45" />
<line x1="66" y1="54" x2="66" y2="670" stroke="#20313a" stroke-width="1" opacity="0.45" />
<line x1="110" y1="54" x2="110" y2="670" stroke="#20313a" stroke-width="1" opacity="0.45" />
<line x1="154" y1="54" x2="154" y2="670" stroke="#20313a" stroke-width="1" opacity="0.45" />
<line x1="198" y1="54" x2="198" y2="670" stroke="#20313a" stroke-width="1" opacity="0.45" />
<line x1="242" y1="54" x2="242" y2="670" stroke="#20313a" stroke-width="1" opacity="0.45" />
<line x1="286" y1="54" x2="286" y2="670" stroke="#20313a" stroke-width="1" opacity="0.45" />
<line x1="330" y1="54" x2="330" y2="670" stroke="#20313a" stroke-width="1" opacity="0.45" />
<line x1="374" y1="54" x2="374" y2="670" stroke="#20313a" stroke-width="1" opacity="0.45" />
<line x1="418" y1="54" x2="418" y2="670" stroke="#20313a" stroke-width="1" opacity="0.45" />
<line x1="462" y1="54" x2="462" y2="670" stroke="#20313a" stroke-width="1" opacity="0.45" />
<line x1="506" y1="54" x2="506" y2="670" stroke="#20313a" stroke-width="1" opacity="0.45" />
<line x1="550" y1="54" x2="550" y2="670" stroke="#20313a" stroke-width="1" opacity="0.45" />
<line x1="594" y1="54" x2="594" y2="670" stroke="#20313a" stroke-width="1" opacity="0.45" />
<line x1="638" y1="54" x2="638" y2="670" stroke="#20313a" stroke-width="1" opacity="0.45" />
<line x1="682" y1="54" x2="682" y2="670" stroke="#20313a" stroke-width="1" opacity="0.45" />
<line x1="726" y1="54" x2="726" y2="670" stroke="#20313a" stroke-width="1" opacity="0.45" />
<line x1="770" y1="54" x2="770" y2="670" stroke="#20313a" stroke-width="1" opacity="0.45" />
<line x1="814" y1="54" x2="814" y2="670" stroke="#20313a" stroke-width="1" opacity="0.45" />
<line x1="858" y1="54" x2="858" y2="670" stroke="#20313a" stroke-width="1" opacity="0.45" />
<line x1="902" y1="54" x2="902" y2="670" stroke="#20313a" stroke-width="1" opacity="0.45" />
<line x1="946" y1="54" x2="946" y2="670" stroke="#20313a" stroke-width="1" opacity="0.45" />
<line x1="990" y1="54" x2="990" y2="670" stroke="#20313a" stroke-width="1" opacity="0.45" />
<line x1="1034" y1="54" x2="1034" y2="670" stroke="#20313a" stroke-width="1" opacity="0.45" />
<line x1="22" y1="54" x2="1034" y2="54" stroke="#20313a" stroke-width="1" opacity="0.45" />
<line x1="22" y1="98" x2="1034" y2="98" stroke="#20313a" stroke-width="1" opacity="0.45" />
<line x1="22" y1="142" x2="1034" y2="142" stroke="#20313a" stroke-width="1" opacity="0.45" />
<line x1="22" y1="186" x2="1034" y2="186" stroke="#20313a" stroke-width="1" opacity="0.45" />
<line x1="22" y1="230" x2="1034" y2="230" stroke="#20313a" stroke-width="1" opacity="0.45" />
<line x1="22" y1="274" x2="1034" y2="274" stroke="#20313a" stroke-width="1" opacity="0.45" />
<line x1="22" y1="318" x2="1034" y2="318" stroke="#20313a" stroke-width="1" opacity="0.45" />
<line x1="22" y1="362" x2="1034" y2="362" stroke="#20313a" stroke-width="1" opacity="0.45" />
<line x1="22" y1="406" x2="1034" y2="406" stroke="#20313a" stroke-width="1" opacity="0.45" />
<line x1="22" y1="450" x2="1034" y2="450" stroke="#20313a" stroke-width="1" opacity="0.45" />
<line x1="22" y1="494" x2="1034" y2="494" stroke="#20313a" stroke-width="1" opacity="0.45" />
<line x1="22" y1="538" x2="1034" y2="538" stroke="#20313a" stroke-width="1" opacity="0.45" />
<line x1="22" y1="582" x2="1034" y2="582" stroke="#20313a" stroke-width="1" opacity="0.45" />
<line x1="22" y1="626" x2="1034" y2="626" stroke="#20313a" stroke-width="1" opacity="0.45" />
<line x1="22" y1="670" x2="1034" y2="670" stroke="#20313a" stroke-width="1" opacity="0.45" />
  <rect x="209" y="516" width="66" height="44" fill="#466f61" opacity="0.88" rx="2" />
<rect x="451" y="439" width="55" height="44" fill="#466f61" opacity="0.88" rx="2" />
<rect x="143" y="318" width="55" height="176" fill="#466f61" opacity="0.88" rx="2" />
<rect x="297" y="241" width="110" height="44" fill="#466f61" opacity="0.88" rx="2" />
<rect x="539" y="230" width="176" height="44" fill="#466f61" opacity="0.88" rx="2" />
<rect x="737" y="252" width="55" height="77" fill="#466f61" opacity="0.88" rx="2" />
<rect x="638" y="351" width="55" height="66" fill="#466f61" opacity="0.88" rx="2" />
<rect x="660" y="439" width="77" height="44" fill="#466f61" opacity="0.88" rx="2" />
<rect x="880" y="527" width="44" height="44" fill="#466f61" opacity="0.88" rx="2" />
<rect x="407" y="538" width="55" height="55" fill="#466f61" opacity="0.88" rx="2" />
<rect x="594" y="582" width="143" height="44" fill="#466f61" opacity="0.88" rx="2" />
<rect x="715" y="593" width="66" height="33" fill="#466f61" opacity="0.88" rx="2" />
<rect x="814" y="571" width="77" height="33" fill="#466f61" opacity="0.88" rx="2" />
<rect x="561" y="494" width="44" height="77" fill="#466f61" opacity="0.88" rx="2" />
<rect x="66" y="483" width="154" height="99" fill="#2f564b" opacity="0.92" rx="2" />
<rect x="264" y="472" width="198" height="88" fill="#2f564b" opacity="0.92" rx="2" />
<rect x="495" y="384" width="176" height="110" fill="#2f564b" opacity="0.92" rx="2" />
<rect x="132" y="208" width="176" height="121" fill="#2f564b" opacity="0.92" rx="2" />
<rect x="396" y="197" width="154" height="88" fill="#2f564b" opacity="0.92" rx="2" />
<rect x="704" y="164" width="198" height="99" fill="#2f564b" opacity="0.92" rx="2" />
<rect x="649" y="307" width="110" height="77" fill="#2f564b" opacity="0.92" rx="2" />
<rect x="726" y="461" width="198" height="110" fill="#2f564b" opacity="0.92" rx="2" />
<rect x="880" y="560" width="110" height="77" fill="#2f564b" opacity="0.92" rx="2" />
<rect x="429" y="560" width="165" height="66" fill="#2f564b" opacity="0.92" rx="2" />
<rect x="627" y="582" width="99" height="55" fill="#2f564b" opacity="0.92" rx="2" />
<rect x="770" y="593" width="99" height="44" fill="#2f564b" opacity="0.92" rx="2" />
  <circle cx="819.5" cy="202.5" r="5" fill="#ffffff" /><text x="826.5" y="195.5" font-size="10" fill="#e8f5de" font-family="monospace">SPAWN</text>
<rect x="583.5" y="439.5" width="10" height="10" fill="#9dff57" transform="rotate(45 588.5 444.5)" /><text x="595.5" y="437.5" font-size="10" fill="#e8f5de" font-family="monospace">OBJECTIVE</text>
<rect x="935.5" y="593.5" width="10" height="10" fill="#67d8ff" transform="rotate(45 940.5 598.5)" /><text x="947.5" y="591.5" font-size="10" fill="#e8f5de" font-family="monospace">EXIT</text>
<rect x="594.5" y="428.5" width="10" height="10" fill="#ff9f1c" transform="rotate(45 599.5 433.5)" /><text x="606.5" y="426.5" font-size="10" fill="#e8f5de" font-family="monospace">ELITE</text>
<circle cx="170.5" cy="246.5" r="5" fill="#ffd166" /><text x="177.5" y="239.5" font-size="10" fill="#e8f5de" font-family="monospace">CACHE 1</text>
<circle cx="852.5" cy="202.5" r="5" fill="#ffd166" /><text x="859.5" y="195.5" font-size="10" fill="#e8f5de" font-family="monospace">CACHE 2</text>
<circle cx="522.5" cy="587.5" r="5" fill="#ffd166" /><text x="529.5" y="580.5" font-size="10" fill="#e8f5de" font-family="monospace">CACHE 3</text>
<circle cx="951.5" cy="620.5" r="5" fill="#ffd166" /><text x="958.5" y="613.5" font-size="10" fill="#e8f5de" font-family="monospace">CACHE 4</text>
<circle cx="456.5" cy="224.5" r="5" fill="#ffd166" /><text x="463.5" y="217.5" font-size="10" fill="#e8f5de" font-family="monospace">CACHE 5</text>
<rect x="165.5" y="241.5" width="10" height="10" fill="#ffb84d" transform="rotate(45 170.5 246.5)" /><text x="177.5" y="239.5" font-size="10" fill="#e8f5de" font-family="monospace">NEIGHBORHOOD CACHE BOON</text>
<rect x="451.5" y="219.5" width="10" height="10" fill="#ffb84d" transform="rotate(45 456.5 224.5)" /><text x="463.5" y="217.5" font-size="10" fill="#e8f5de" font-family="monospace">MARKET ALLEY SHARDS</text>
<rect x="847.5" y="197.5" width="10" height="10" fill="#ffb84d" transform="rotate(45 852.5 202.5)" /><text x="859.5" y="195.5" font-size="10" fill="#e8f5de" font-family="monospace">BRIDGE CACHE WEAPON</text>
<rect x="517.5" y="582.5" width="10" height="10" fill="#ffb84d" transform="rotate(45 522.5 587.5)" /><text x="529.5" y="580.5" font-size="10" fill="#e8f5de" font-family="monospace">RIVER WALK HEALTH</text>
<rect x="946.5" y="615.5" width="10" height="10" fill="#ffb84d" transform="rotate(45 951.5 620.5)" /><text x="958.5" y="613.5" font-size="10" fill="#e8f5de" font-family="monospace">ORCHARD GATE OVERDRIVE</text>
<circle cx="522.5" cy="587.5" r="5" fill="#b86dff" /><text x="529.5" y="580.5" font-size="10" fill="#e8f5de" font-family="monospace">WPN DISC</text>
<circle cx="676.5" cy="609.5" r="5" fill="#b86dff" /><text x="683.5" y="602.5" font-size="10" fill="#e8f5de" font-family="monospace">WPN ARC</text>
<circle cx="797.5" cy="213.5" r="5" fill="#bcff72" /><text x="804.5" y="206.5" font-size="10" fill="#e8f5de" font-family="monospace">BRIDGE OVERLOOK</text>
<circle cx="467.5" cy="246.5" r="5" fill="#bcff72" /><text x="474.5" y="239.5" font-size="10" fill="#e8f5de" font-family="monospace">MARKET ALLEY</text>
<circle cx="720.5" cy="345.5" r="5" fill="#bcff72" /><text x="727.5" y="338.5" font-size="10" fill="#e8f5de" font-family="monospace">RIVER ROAD TOWER</text>
<circle cx="588.5" cy="444.5" r="5" fill="#bcff72" /><text x="595.5" y="437.5" font-size="10" fill="#e8f5de" font-family="monospace">TOWER LINE</text>
<circle cx="764.5" cy="510.5" r="5" fill="#67d8ff" /><text x="771.5" y="503.5" font-size="10" fill="#e8f5de" font-family="monospace">STADIUM ROAD</text>
<circle cx="885.5" cy="554.5" r="5" fill="#67d8ff" /><text x="892.5" y="547.5" font-size="10" fill="#e8f5de" font-family="monospace">COUNTY TRAIL</text>
<circle cx="940.5" cy="598.5" r="5" fill="#67d8ff" /><text x="947.5" y="591.5" font-size="10" fill="#e8f5de" font-family="monospace">ORCHARD GATE</text>
<circle cx="225.5" cy="532.5" r="5" fill="#ff5d73" /><text x="232.5" y="525.5" font-size="10" fill="#e8f5de" font-family="monospace">TAGGER</text>
<circle cx="368.5" cy="521.5" r="5" fill="#ff5d73" /><text x="375.5" y="514.5" font-size="10" fill="#e8f5de" font-family="monospace">WEAVER</text>
<circle cx="467.5" cy="246.5" r="5" fill="#ff5d73" /><text x="474.5" y="239.5" font-size="10" fill="#e8f5de" font-family="monospace">SNIPER</text>
<circle cx="643.5" cy="444.5" r="5" fill="#ff5d73" /><text x="650.5" y="437.5" font-size="10" fill="#e8f5de" font-family="monospace">CIPHER</text>
<circle cx="720.5" cy="257.5" r="5" fill="#ff5d73" /><text x="727.5" y="250.5" font-size="10" fill="#e8f5de" font-family="monospace">WEAVER</text>
<circle cx="731.5" cy="345.5" r="5" fill="#ff5d73" /><text x="738.5" y="338.5" font-size="10" fill="#e8f5de" font-family="monospace">DORMANT</text>
<circle cx="885.5" cy="521.5" r="5" fill="#ff5d73" /><text x="892.5" y="514.5" font-size="10" fill="#e8f5de" font-family="monospace">CIPHER</text>
<circle cx="544.5" cy="477.5" r="5" fill="#ff5d73" /><text x="551.5" y="470.5" font-size="10" fill="#e8f5de" font-family="monospace">TAGGER</text>
<circle cx="236.5" cy="257.5" r="5" fill="#ff5d73" /><text x="243.5" y="250.5" font-size="10" fill="#e8f5de" font-family="monospace">TAGGER</text>
<circle cx="522.5" cy="598.5" r="5" fill="#ff5d73" /><text x="529.5" y="591.5" font-size="10" fill="#e8f5de" font-family="monospace">DORMANT</text>
<circle cx="841.5" cy="488.5" r="5" fill="#ff5d73" /><text x="848.5" y="481.5" font-size="10" fill="#e8f5de" font-family="monospace">WARDEN</text>
<circle cx="940.5" cy="609.5" r="5" fill="#ff5d73" /><text x="947.5" y="602.5" font-size="10" fill="#e8f5de" font-family="monospace">WEAVER</text>
<circle cx="797.5" cy="609.5" r="5" fill="#ff5d73" /><text x="804.5" y="602.5" font-size="10" fill="#e8f5de" font-family="monospace">SNIPER</text>
  <text x="1062" y="26" font-size="14" fill="#9dff57" font-family="monospace" font-weight="700">Schematic Notes</text>
  <text x="1062" y="47" font-size="10" fill="#f5efe0" font-family="monospace">Town is now a street/cover connector with Main Street, neighborhood/market upper approach, bridge overlook, river-walk shortcut, stadium back alley and Orchard Gate.</text>
  <text x="1062" y="75" font-size="11" fill="#f5efe0" font-family="monospace">Legend: white spawn · green objective/sign · cyan exit · yellow cache · red enemy/scanner · purple weapon · red dashed boost gap · teal gravity</text>
  <text x="1062" y="106" font-size="12" fill="#e8f5de" font-family="monospace" font-weight="700">Town Entry (10,43)</text>
<text x="1062" y="122" font-size="10" fill="#f5efe0" font-family="monospace">Spawn from Motel on the west road.</text>
<text x="1062" y="149" font-size="12" fill="#e8f5de" font-family="monospace" font-weight="700">Main Street (25,42)</text>
<text x="1062" y="165" font-size="10" fill="#f5efe0" font-family="monospace">Primary storefront route and cover lane.</text>
<text x="1062" y="192" font-size="12" fill="#e8f5de" font-family="monospace" font-weight="700">Neighborhood Block (18,19)</text>
<text x="1062" y="208" font-size="10" fill="#f5efe0" font-family="monospace">Optional upper approach through houses/alleys.</text>
<text x="1062" y="235" font-size="12" fill="#e8f5de" font-family="monospace" font-weight="700">Market Alley (40,17)</text>
<text x="1062" y="251" font-size="10" fill="#f5efe0" font-family="monospace">Northern route toward the bridge and tower flank.</text>
<text x="1062" y="278" font-size="12" fill="#e8f5de" font-family="monospace" font-weight="700">River Road Tower (51,35)</text>
<text x="1062" y="294" font-size="10" fill="#f5efe0" font-family="monospace">Main hostile-structure objective.</text>
<text x="1062" y="321" font-size="12" fill="#e8f5de" font-family="monospace" font-weight="700">Bridge Overlook (71,14)</text>
<text x="1062" y="337" font-size="10" fill="#f5efe0" font-family="monospace">Chagrin Falls landmark / upper approach.</text>
<text x="1062" y="364" font-size="12" fill="#e8f5de" font-family="monospace" font-weight="700">River Walk (45,48)</text>
<text x="1062" y="380" font-size="10" fill="#f5efe0" font-family="monospace">Lower shortcut and hidden cache path.</text>
<text x="1062" y="407" font-size="12" fill="#e8f5de" font-family="monospace" font-weight="700">Broken Bridge Pocket (59,50)</text>
<text x="1062" y="423" font-size="10" fill="#f5efe0" font-family="monospace">Recovery bend on the lower route.</text>
<text x="1062" y="450" font-size="12" fill="#e8f5de" font-family="monospace" font-weight="700">Stadium Back Alley (72,50)</text>
<text x="1062" y="466" font-size="10" fill="#f5efe0" font-family="monospace">Return loop behind Stadium Road toward Orchard Gate.</text>
<text x="1062" y="493" font-size="12" fill="#e8f5de" font-family="monospace" font-weight="700">Stadium Road (67,41)</text>
<text x="1062" y="509" font-size="10" fill="#f5efe0" font-family="monospace">Expanded exit approach and combat recovery space.</text>
<text x="1062" y="536" font-size="12" fill="#e8f5de" font-family="monospace" font-weight="700">Orchard Gate (83,49)</text>
<text x="1062" y="552" font-size="10" fill="#f5efe0" font-family="monospace">Transition toward Patterson’s Orchard.</text>
</svg>
